<svg width="620" height="620" viewBox="0 0 620 620" fill="none" xmlns="http://www.w3.org/2000/svg">
<path d="M316.616 362.511L319.005 362.467C322.733 362.418 326.594 362.426 330.265 363.103C337.101 364.364 345.607 368.415 350.586 373.355C357.411 380.126 363.63 387.201 365.914 396.772C366.492 399.198 366.621 401.656 367.058 404.098C367.535 406.763 368.606 406.513 368.494 410.097C368.361 414.382 366.647 417.711 366.65 422.806C366.659 434.499 370.281 445.848 378.725 454.252C387.964 463.445 396.092 467.95 409.374 468.268C412.509 468.343 415.642 468.01 418.777 468.02C428.881 468.051 440.045 472.031 447.142 479.37C448.775 481.058 450.118 483.026 451.454 484.949C457.753 494.014 457.922 501.465 457.637 512.226C457.369 522.36 451.968 530.463 444.787 537.191C436.966 544.518 427.377 546.543 416.978 546.192C409.738 545.947 403.467 543.088 397.678 538.83C389.998 533.182 382.699 523.527 381.865 513.734C381.385 508.098 382.043 502.372 381.484 496.716C381.334 495.205 380.418 494.009 380.085 492.545C378.004 483.37 376.316 478.324 369.541 471.206C360.834 462.058 346.994 460.719 335.147 459.403C331.399 458.987 327.763 458.329 323.98 458.243C316.069 457.88 308.564 458.965 300.723 459.757C296.478 460.186 292.166 461.162 288.075 462.349C277.585 465.394 271.773 469.252 265.828 478.622C263.166 482.818 261.065 487.442 260.255 492.375C259.683 495.861 259.785 499.412 259.782 502.933C259.779 506.128 259.94 509.419 259.549 512.592C258.675 519.695 254.298 527.129 249.827 532.563C244.329 539.244 234.989 545.192 226.244 545.996C214.632 547.064 204.404 544.253 195.478 536.643C187.313 529.684 183.084 519.613 182.352 509.08C181.733 499.246 185.03 489.567 191.522 482.154C198.926 473.771 209.099 468.217 220.494 468.002C224.879 467.919 229.106 468.661 233.545 468.358C235.81 468.203 238.3 468.055 240.499 467.459C247.488 465.565 257.383 459.718 262.1 454.286C268.296 447.152 271.063 441.105 272.861 431.909C273.487 428.713 274.09 425.227 273.873 421.963C273.682 419.098 272.62 416.335 272.457 413.462C271.738 400.805 276.388 387.664 284.936 378.36C293.283 369.273 304.199 362.958 316.616 362.511Z" fill="#762DED"/>
<path d="M504.939 176.548C510.468 176.158 517.939 175.803 523.309 176.993C530.996 178.698 535.57 182.541 541.007 187.839C542.501 189.294 544.134 190.443 545.272 192.225C550.482 200.391 554.278 211.271 552.062 221.03C549.475 232.42 542.911 241.484 533.205 247.795C529.325 250.318 524.814 252.392 520.219 253.133C517.021 253.649 513.546 253.61 510.309 253.628C499.328 253.687 492.949 254.524 483.367 260.568C470.385 268.755 468.997 278.33 465.942 292.252C465.433 294.566 465.361 296.938 465.061 299.281C464.675 302.302 464.009 305.275 463.823 308.321C463.418 314.971 464.026 321.238 464.882 327.8C465.916 335.728 466.63 341.3 469.103 349.001C470.092 352.082 471.11 355.604 472.936 358.299C479.02 367.272 492.914 374.945 503.66 375.345C509.591 375.566 516.027 374.547 521.828 375.781C530.417 377.61 540.427 384.418 545.177 391.798C550.64 400.286 554.313 410.205 551.97 420.401C549.323 431.914 542.981 441.337 532.906 447.633C524.716 452.752 512.435 453.668 503.132 451.533C499.538 450.425 496.281 449.075 493.095 447.053C481.783 439.727 474.801 427.302 474.426 413.829C474.258 407.354 475.156 400.887 473.701 394.485C470.862 381.984 462.572 373.064 451.934 366.492C441.704 360.172 432.738 359.613 421.295 362.228C412.376 364.264 399.849 360.412 392.284 355.635C380.98 348.5 373.5 339.018 370.579 325.783C367.754 312.979 369.554 299.241 376.694 288.174C385.813 274.038 401.511 265.101 418.447 265.998C427.251 266.465 432.675 268.329 441.97 266.268C449.127 264.681 455.343 260.735 460.668 255.787C484.447 233.688 466.592 216.32 480.739 194.108C486.141 185.627 495.037 178.758 504.939 176.548Z" fill="#762DED"/>
<path d="M270.383 327.037C270.166 328.073 269.854 329.017 269.481 330.006C263.835 344.984 253.717 355.294 238.401 360.218C233.747 361.715 229.631 362.714 224.706 362.759C220.369 362.799 216.467 362.017 212.202 361.563C205.851 360.887 198.655 361.942 192.845 364.625C177.071 371.91 166.851 386.541 166.18 403.946C166.066 406.911 166.407 409.908 166.441 412.876C166.497 417.722 165.447 423.4 163.744 427.932C160.203 437.359 152.476 445.572 143.276 449.675C134.223 453.714 123.63 454.281 114.341 450.681C106.042 447.466 99.9296 442.286 95.0041 434.966C93.6981 433.025 92.3599 431.116 91.4178 428.965C88.0819 421.348 87.9389 408.787 91.0097 401.072C92.6659 396.912 96.1074 390.909 99.1609 387.649C100.569 386.146 102.343 384.807 103.959 383.523C113.497 375.946 118.616 374.876 130.428 375.212C133.132 375.289 135.956 375.531 138.645 375.283C142.766 374.902 147.237 373.419 151.009 371.744C159.233 368.092 167.521 361.923 170.735 353.288C172.143 349.505 174.959 338.325 175.445 334.266C175.78 331.462 175.576 328.571 175.982 325.783C176.257 323.887 177.127 322.079 177.48 320.194C178.055 317.112 177.793 312.873 177.609 309.742C177.462 307.225 176.408 305.433 175.974 303.088C175.359 299.76 175.873 296.222 175.424 292.863C175.243 291.507 174.347 290.634 174.073 289.336C172.934 283.949 172.464 278.35 170.097 273.278C167.774 268.299 163.311 263.931 158.819 260.886C139.536 247.82 132.023 257.57 114.542 251.22C104.351 247.517 95.8198 238.592 91.3535 228.849C87.73 220.943 88.1686 208.871 91.2106 200.892C94.806 191.462 103.155 182.975 112.31 178.907C114.437 177.962 116.661 177.189 118.957 176.782C123.056 176.055 134.136 175.867 137.933 177.312C138.017 177.431 138.095 177.554 138.184 177.67C138.847 178.542 140.836 179.041 141.855 179.43C143.519 180.066 144.989 181.167 146.458 182.158C153.347 186.812 158.736 192.621 162.068 200.312C163.883 204.501 165.319 211.53 165.309 216.079C165.304 218.642 164.921 221.19 164.909 223.751C164.849 235.46 169.12 245.863 177.207 254.234C178.903 255.989 180.719 258.128 182.643 259.618C183.715 260.447 185.046 260.875 186.159 261.627C188.498 263.207 190.29 264.405 192.958 265.473C195.012 266.295 197.108 267.02 199.344 266.747C204.822 267.798 210.604 267.73 216.145 267.125C218.875 266.826 221.64 266.262 224.388 266.234C227.93 266.197 231.467 266.866 234.905 267.659C236.762 268.086 239.012 268.52 240.713 269.385C241.725 270.957 247.454 273.229 249.393 274.506C252.673 276.668 255.418 279.433 258.113 282.266C270.284 295.061 270.728 307.395 270.147 324.068L270.032 323.927C269.702 325.206 269.859 325.839 270.383 327.037Z" fill="black"/>
<path d="M294.707 168.016C296.251 168.248 297.68 168.823 299.202 169.065C301.52 169.435 303.995 169.351 306.345 169.573C309.441 169.868 312.495 170.495 315.607 170.638C322.289 170.944 328.579 170.304 335.206 169.563C345.276 168.435 357.203 167.083 365.652 160.936C371.172 156.922 375.9 150.39 378.281 144.021C379.05 141.964 379.469 139.838 380.084 137.742C380.482 136.383 381.23 135.144 381.418 133.725C382.188 127.907 381.409 121.925 381.82 116.078C382.407 107.739 388.736 97.2642 395.125 92.0292C405.001 83.9359 412.852 81.3888 425.609 82.7545C435.715 83.8355 444.726 89.9855 450.939 97.7728C456.371 104.581 457.57 111.448 457.663 119.992C457.695 122.939 457.79 125.933 457.462 128.866C456.475 137.685 450.421 146.734 443.516 152.115C436.961 157.223 428.213 159.829 419.974 160.207C416.112 160.384 412.233 160.036 408.367 160.206C397.1 160.701 387.429 165.028 379.598 173.145C374.256 178.682 370.633 184.572 368.392 191.972L367.517 190.771C366.934 192.365 366.057 194.225 365.791 195.89C365.321 198.844 365.454 209.41 365.966 212.328C366.421 214.92 367.579 217.727 367.61 220.35C367.618 221.06 367.311 221.598 367.018 222.221C366.049 224.28 366.362 226.468 366.628 228.636C366.625 229.372 366.453 230.011 366.274 230.717C363.218 242.772 354.535 253.443 343.897 259.741C333.269 266.033 319.662 267.584 307.735 264.506C303.45 263.401 299.67 261.395 295.937 259.057C282.481 250.629 273.947 237.603 272.637 221.567C272.099 214.978 273.336 211.711 273.938 205.649C274.663 198.341 271.148 187.054 267.415 180.856C264.125 175.392 260.112 171.497 254.97 167.876C237.148 155.329 227.976 163.34 210.655 158.9C201.335 156.512 192.364 149.141 187.518 140.923C182.399 132.243 180.941 121.066 183.571 111.335C186.461 100.64 193.237 92.4609 202.805 86.9699C208.984 83.4239 214.928 82.4474 221.953 82.5415C224.183 82.5714 226.602 82.6156 228.762 83.2051C228.867 83.3314 228.968 83.4623 229.078 83.5834C230.511 85.1581 234.335 85.4905 236.346 86.6071C248.759 93.5057 258.487 106.213 258.675 120.75C258.727 124.714 258.36 128.826 258.674 132.767C259.445 142.465 264.273 151.956 271.198 158.716C275.959 163.364 281.584 165.519 287.919 167.176C289.503 167.591 291.461 168.224 293.094 168.181C293.495 168.171 293.879 168.107 294.276 168.06C294.419 168.042 294.563 168.03 294.707 168.016Z" fill="black"/>
<path d="M416.551 183.158C433.836 181.336 449.355 193.797 451.309 211.067C453.262 228.339 440.919 243.952 423.663 246.035C406.222 248.142 390.405 235.637 388.431 218.18C386.456 200.724 399.08 185.001 416.551 183.158Z" fill="#762DED"/>
<path d="M219.469 183.174C236.946 182.3 251.782 195.844 252.501 213.328C253.221 230.811 239.548 245.528 222.059 246.094C204.785 246.653 190.29 233.185 189.579 215.917C188.868 198.65 202.208 184.036 219.469 183.174Z" fill="black"/>
<path d="M290.752 302.98C290.875 302.902 291.003 302.828 291.123 302.744C292.374 301.866 294.613 297.501 295.609 295.975C300.764 288.076 310.689 282.596 320.175 282.447L319.732 282.59C321.953 282.686 324.262 282.688 326.437 283.182C331.601 284.352 338.495 288.374 342.044 292.287C348.042 298.902 351.36 308.389 350.884 317.266C350.794 318.928 350.541 320.46 350.03 322.047C347.535 329.802 342.571 337.049 335.366 341.135C329.013 344.737 320.326 346.601 313.183 344.527C303.651 341.76 296.764 335.394 292.119 326.733C291.762 326.067 291.589 325.516 291.404 324.793C290.564 321.525 288.977 317.899 289.113 314.498C289.222 311.773 291.211 305.959 290.452 303.809C290.548 303.531 290.648 303.255 290.752 302.98Z" fill="black"/>
<path d="M448.514 427.203C445.828 429.108 444.11 433.188 441.854 435.697C436.959 441.142 427.664 444.541 420.493 444.875C411.942 445.274 405.233 441.554 399.095 435.842C393.591 430.719 390.06 423.14 389.814 415.636C389.521 406.708 391.329 399.368 397.642 392.744C402.612 387.529 409.744 383.075 417.112 382.896C427.182 382.652 432.837 383.671 440.353 390.942C450.618 400.873 449.273 407.31 449.802 420.442C449.893 422.713 448.269 424.402 448.54 426.625C448.555 426.748 448.589 426.867 448.614 426.988C448.581 427.06 448.547 427.132 448.514 427.203Z" fill="#762DED"/>
<path d="M248.906 428.526C245.78 430.274 244.712 434.646 241.925 436.785C238.771 439.207 233.943 443.094 230.022 443.941C221.891 445.696 214.881 445.973 207.643 441.392C200.476 436.856 196.982 432.817 193.275 425.301C192.745 424.226 191.472 422.327 191.267 421.19C191.072 420.104 191.722 418.916 191.41 417.713C191.096 416.502 190.055 415.188 189.977 413.948C189.921 413.066 190.509 412.06 190.678 411.182C190.95 409.768 190.928 408.318 191.232 406.895C192.229 402.23 194.941 397.194 198.064 393.613C202.545 388.475 210.374 383.224 217.328 382.814C226.084 382.297 232.668 382.902 239.433 388.972C245.46 394.38 246.397 395.788 249.273 403.17C249.927 404.85 250.767 406.252 250.985 408.079C251.464 412.081 251.233 417.663 251.494 422.04C250.874 424.291 250.006 426.466 248.906 428.526Z" fill="#762DED"/>
<path d="M290.752 302.98C296.912 286.652 315.094 278.355 331.465 284.402C347.835 290.449 356.258 308.573 350.325 324.986C344.392 341.397 326.326 349.946 309.874 344.127C293.421 338.308 284.747 320.302 290.452 303.809C291.211 305.959 289.222 311.773 289.113 314.498C288.977 317.899 290.563 321.525 291.404 324.793C291.589 325.516 291.762 326.067 292.119 326.733C296.763 335.394 303.651 341.76 313.183 344.527C320.326 346.601 329.013 344.737 335.366 341.135C342.571 337.049 347.535 329.802 350.03 322.047C350.54 320.46 350.794 318.928 350.884 317.266C351.36 308.389 348.042 298.902 342.044 292.287C338.495 288.374 331.601 284.352 326.437 283.182C324.262 282.688 321.953 282.686 319.732 282.59L320.175 282.447C310.689 282.596 300.764 288.076 295.609 295.975C294.613 297.501 292.374 301.866 291.123 302.744C291.003 302.828 290.875 302.902 290.752 302.98Z" fill="black"/>
<path d="M248.906 428.526C241.006 443.319 222.927 449.363 207.721 442.294C192.513 435.226 185.478 417.509 191.694 401.934C197.91 386.359 215.21 378.354 231.105 383.699C247 389.043 255.951 405.874 251.494 422.04C251.233 417.663 251.464 412.081 250.985 408.079C250.767 406.252 249.927 404.85 249.273 403.171C246.397 395.788 245.46 394.38 239.433 388.972C232.668 382.902 226.084 382.297 217.328 382.814C210.374 383.224 202.545 388.475 198.064 393.613C194.94 397.194 192.229 402.23 191.232 406.895C190.928 408.318 190.95 409.768 190.678 411.182C190.509 412.06 189.921 413.066 189.976 413.948C190.055 415.188 191.096 416.502 191.41 417.714C191.722 418.916 191.072 420.104 191.267 421.19C191.472 422.327 192.745 424.226 193.275 425.301C196.982 432.817 200.476 436.856 207.642 441.392C214.88 445.973 221.89 445.696 230.022 443.941C233.942 443.095 238.77 439.207 241.925 436.785C244.712 434.646 245.78 430.274 248.906 428.526Z" fill="#762DED"/>
<path d="M448.514 427.203C441.06 442.954 422.261 449.696 406.496 442.273C390.731 434.849 383.953 416.062 391.347 400.283C398.742 384.504 417.515 377.692 433.308 385.056C449.101 392.421 455.949 411.182 448.614 426.988C448.59 426.867 448.555 426.748 448.54 426.625C448.269 424.402 449.893 422.713 449.802 420.442C449.273 407.31 450.618 400.873 440.353 390.942C432.838 383.671 427.182 382.652 417.112 382.896C409.744 383.074 402.613 387.529 397.642 392.744C391.329 399.368 389.521 406.708 389.814 415.636C390.06 423.14 393.591 430.719 399.095 435.842C405.233 441.554 411.942 445.274 420.493 444.875C427.665 444.541 436.959 441.142 441.854 435.697C444.11 433.188 445.828 429.108 448.514 427.203Z" fill="#762DED"/>
<path d="M137.933 177.312C148.472 180.597 156.932 187.663 162.05 197.438C164.837 202.761 166.63 209.682 166.638 215.719C166.642 218.45 166.281 221.172 166.301 223.902C166.39 236.167 170.796 246.427 179.504 255.028C184.252 259.718 189.636 263.683 196.059 265.753C197.149 266.099 198.244 266.431 199.344 266.747C197.108 267.02 195.012 266.295 192.958 265.473C190.29 264.405 188.498 263.207 186.159 261.627C185.046 260.875 183.715 260.447 182.643 259.618C180.719 258.128 178.903 255.989 177.207 254.234C169.12 245.863 164.849 235.46 164.909 223.751C164.921 221.19 165.304 218.642 165.309 216.079C165.319 211.53 163.883 204.501 162.068 200.312C158.736 192.621 153.347 186.812 146.458 182.158C144.989 181.167 143.519 180.066 141.855 179.43C140.836 179.04 138.847 178.542 138.184 177.67C138.095 177.554 138.017 177.431 137.933 177.312Z" fill="black"/>
<path d="M228.762 83.2051C240.13 86.4624 249.733 93.2537 255.493 103.803C265.714 122.523 252.449 133.576 269.172 154.538C273.478 159.936 278.327 163.633 284.973 165.643C288.155 166.606 291.461 167.298 294.707 168.016C294.563 168.03 294.419 168.042 294.276 168.06C293.879 168.107 293.495 168.171 293.094 168.181C291.462 168.224 289.503 167.591 287.919 167.176C281.585 165.519 275.959 163.364 271.198 158.716C264.273 151.956 259.445 142.465 258.674 132.767C258.36 128.826 258.727 124.714 258.676 120.75C258.487 106.213 248.759 93.5057 236.346 86.6071C234.335 85.4905 230.511 85.1581 229.079 83.5835C228.968 83.4623 228.867 83.3314 228.762 83.2051Z" fill="black"/>
<path d="M240.713 269.385C249.314 271.087 259.038 280.373 263.834 287.454C269.597 295.964 271.613 304.956 271.665 315.083C271.679 317.836 271.728 320.757 271.217 323.472C270.991 324.669 270.686 325.856 270.383 327.037C269.859 325.839 269.702 325.206 270.032 323.927L270.147 324.068C270.728 307.395 270.284 295.061 258.113 282.266C255.418 279.433 252.673 276.668 249.393 274.506C247.454 273.229 241.725 270.957 240.713 269.385Z" fill="black"/>
<path d="M366.628 228.636C366.362 226.468 366.049 224.28 367.018 222.221C367.311 221.598 367.618 221.06 367.61 220.35C367.579 217.727 366.421 214.92 365.966 212.328C365.454 209.41 365.321 198.844 365.791 195.89C366.056 194.225 366.934 192.365 367.517 190.771L368.392 191.971C367.957 193.009 367.459 194.094 367.203 195.193C366.292 199.099 366.086 209.637 367.598 213.331C369.77 218.635 367.063 223.3 366.628 228.636Z" fill="black"/>
</svg>
